<svg width="640" height="700" viewBox="0 0 640 700" fill="none" xmlns="http://www.w3.org/2000/svg">
  <rect width="640" height="700" rx="40" fill="#11100E"/>
  <circle cx="122" cy="138" r="164" fill="#81B0A5" fill-opacity="0.22"/>
  <path d="M86 700C86 533.947 220.615 399.333 386.667 399.333H552V700H86Z" fill="#1A1714"/>
  <path d="M135 700C135 556.977 250.977 441 394 441H456C501.84 441 539 478.16 539 524V700H135Z" fill="#201B17"/>
  <ellipse cx="330" cy="228" rx="116" ry="132" fill="#1F1915"/>
  <path d="M221 252C221 188.487 272.487 137 336 137C399.513 137 451 188.487 451 252C451 290.572 418.212 341 336 341C253.788 341 221 290.572 221 252Z" fill="#D7A15D"/>
  <path d="M176 474C176 404.411 232.411 348 302 348H352C421.589 348 478 404.411 478 474V700H176V474Z" fill="#F0C472"/>
  <path d="M206 197C220.244 124.711 281.141 72 357.333 72C396.99 72 435.098 86.5498 464.555 112.879L491 136.5L456.543 140.282C410.426 145.343 365.774 160.188 324.847 183.844L252.5 225.667L206 197Z" fill="#0F0E0C"/>
  <rect x="444" y="514" width="118" height="126" rx="22" fill="#0D0C0B"/>
  <rect x="462" y="532" width="82" height="90" rx="16" fill="#F6EEDF" fill-opacity="0.08"/>
</svg>
