<svg width="640" height="700" viewBox="0 0 640 700" fill="none" xmlns="http://www.w3.org/2000/svg">
  <rect width="640" height="700" rx="40" fill="#17100B"/>
  <circle cx="498" cy="132" r="152" fill="#C69137" fill-opacity="0.2"/>
  <path d="M112 700C112 541.495 240.495 413 399 413H528V700H112Z" fill="#241913"/>
  <path d="M124 700C124 552.541 243.541 433 391 433H471C518.496 433 557 471.504 557 519V700H124Z" fill="#2F2017"/>
  <ellipse cx="321" cy="242" rx="120" ry="136" fill="#251914"/>
  <path d="M211 260C211 194.83 260.062 142 325 142C389.938 142 439 194.83 439 260C439 299.704 405.176 352 325 352C244.824 352 211 299.704 211 260Z" fill="#C78E49"/>
  <path d="M173 474C173 404.964 228.964 349 298 349H342C411.036 349 467 404.964 467 474V700H173V474Z" fill="#E9B96A"/>
  <path d="M247 181C247 123.562 293.562 77 351 77C389.174 77 422.164 97.7785 440.109 128.606L452 149L427.829 141.809C403.228 134.491 377.725 130.777 352.059 130.777H316C277.892 130.777 243.712 154.03 228.989 189.184L216 220.222L247 181Z" fill="#120D09"/>
  <rect x="74" y="510" width="132" height="146" rx="24" fill="#0E0B08"/>
  <rect x="94" y="530" width="92" height="106" rx="18" fill="#F6EEDF" fill-opacity="0.08"/>
</svg>
