<svg width="720" height="860" viewBox="0 0 720 860" fill="none" xmlns="http://www.w3.org/2000/svg">
  <rect width="720" height="860" rx="44" fill="#120E0C"/>
  <circle cx="154" cy="134" r="162" fill="#C69137" fill-opacity="0.24"/>
  <path d="M102 860C102 659.638 264.438 497.2 464.8 497.2H624V860H102Z" fill="#211711"/>
  <ellipse cx="362" cy="258" rx="126" ry="146" fill="#241913"/>
  <path d="M244 280C244 211.517 299.517 156 368 156C436.483 156 492 211.517 492 280C492 321.692 456.901 376 368 376C279.099 376 244 321.692 244 280Z" fill="#D19A54"/>
  <path d="M204 560C204 489.86 260.86 433 331 433H403C473.14 433 530 489.86 530 560V860H204V560Z" fill="#E9B96A"/>
  <path d="M232 278C247 332.667 291 360 364 360C437 360 479.667 331.333 492 274C485.333 362.667 442.667 424.667 364 460C287 423.333 243 362.667 232 278Z" fill="#0C0A08"/>
  <rect x="446" y="108" width="190" height="70" rx="24" fill="#0E0B08"/>
  <rect x="470" y="132" width="132" height="20" rx="10" fill="#E9B96A"/>
  <rect x="88" y="704" width="284" height="98" rx="24" fill="#0E0B08"/>
  <rect x="116" y="732" width="188" height="16" rx="8" fill="#F6EEDF" fill-opacity="0.86"/>
  <rect x="116" y="760" width="120" height="16" rx="8" fill="#F6EEDF" fill-opacity="0.34"/>
</svg>
